<?xml version="1.0"?>
<svg xmlns="http://www.w3.org/2000/svg" xmlns:xlink="http://www.w3.org/1999/xlink" version="1.1" id="Capa_1" x="0px" y="0px" viewBox="0 0 512 512" style="enable-background:new 0 0 512 512;" xml:space="preserve" width="512px" height="512px" class=""><g><circle style="fill:#5B00A5" cx="256" cy="256" r="256" data-original="#136EF1" class="" data-old_color="#136EF1"/><path style="fill:#46057B" d="M512,256c0-6.165-0.231-12.276-0.66-18.332L374.672,101l-54.492,47.508L101,283.852l36.328,36V411  l100.34,100.34c6.056,0.428,12.167,0.66,18.332,0.66C397.385,512,512,397.385,512,256z" data-original="#0E53B5" class="" data-old_color="#0E53B5"/><path style="fill:#F26578" d="M411,215.736v68.115H264.718c0,0-2.18,0-8.718,0H101v-68.115L256,101L411,215.736z" data-original="#FF3636" class="active-path" data-old_color="#FF3636"/><polygon style="fill:#BABAC0;" points="320.18,101 320.18,165.785 374.672,211.195 374.672,101 " data-original="#BABAC0" class=""/><path style="fill:#DC3D52" d="M411,215.736v68.115H264.718c0,0-2.18,0-8.718,0V101L411,215.736z" data-original="#F40000" class="" data-old_color="#F40000"/><path style="fill:#E7E7E7;" d="M256,145.441L137.328,233.9V411h237.344V233.9L256,145.441z" data-original="#E7E7E7" class=""/><polygon style="fill:#D3D3D8;" points="374.672,233.9 374.672,411 256,411 256,145.441 " data-original="#D3D3D8" class=""/><path style="fill:#5A5A5A;" d="M256,265.688c-25.066,0-45.41,20.344-45.41,45.41V411h90.82v-99.902  C301.41,286.031,281.066,265.688,256,265.688z" data-original="#5A5A5A" class=""/><path style="fill:#444444" d="M301.41,311.098V411H256V265.688C281.066,265.688,301.41,286.031,301.41,311.098z" data-original="#444444" class=""/></g> </svg>
